<mxfile host="Electron" agent="Mozilla/5.0 (X11; Linux x86_64) AppleWebKit/537.36 (KHTML, like Gecko) draw.io/27.0.9 Chrome/134.0.6998.205 Electron/35.4.0 Safari/537.36" version="27.0.9">
  <diagram name="Page-1" id="58cdce13-f638-feb5-8d6f-7d28b1aa9fa0">
    <mxGraphModel dx="988" dy="712" grid="1" gridSize="10" guides="1" tooltips="1" connect="1" arrows="1" fold="1" page="1" pageScale="1" pageWidth="850" pageHeight="1100" background="none" math="0" shadow="0">
      <root>
        <mxCell id="0" />
        <mxCell id="1" parent="0" />
        <mxCell id="2a3bc250acf0617d-7" value="character_states" style="swimlane;whiteSpace=wrap;html=1;rounded=1;shadow=0;comic=0;labelBackgroundColor=none;strokeWidth=1;fontFamily=Verdana;fontSize=12;align=center;" parent="1" vertex="1">
          <mxGeometry x="60" y="40" width="740" height="400" as="geometry" />
        </mxCell>
        <mxCell id="382b91b5511bd0f7-8" value="Idle" style="rounded=1;whiteSpace=wrap;html=1;arcSize=24;fillColor=#ffffc0;strokeColor=#ff0000;shadow=0;comic=0;labelBackgroundColor=none;fontFamily=Verdana;fontSize=12;fontColor=#000000;align=center;" parent="2a3bc250acf0617d-7" vertex="1">
          <mxGeometry x="25" y="45" width="120" height="60" as="geometry" />
        </mxCell>
        <mxCell id="3cde6dad864a17aa-1" value="Jumping" style="rounded=1;whiteSpace=wrap;html=1;arcSize=24;fillColor=#ffffc0;strokeColor=#ff0000;shadow=0;comic=0;labelBackgroundColor=none;fontFamily=Verdana;fontSize=12;fontColor=#000000;align=center;" parent="2a3bc250acf0617d-7" vertex="1">
          <mxGeometry x="185" y="45" width="120" height="60" as="geometry" />
        </mxCell>
        <mxCell id="3cde6dad864a17aa-2" value="Falling" style="rounded=1;whiteSpace=wrap;html=1;arcSize=24;fillColor=#ffffc0;strokeColor=#ff0000;shadow=0;comic=0;labelBackgroundColor=none;fontFamily=Verdana;fontSize=12;fontColor=#000000;align=center;" parent="2a3bc250acf0617d-7" vertex="1">
          <mxGeometry x="345" y="45" width="120" height="60" as="geometry" />
        </mxCell>
        <mxCell id="dlMh0uAXtRNhbofHb56N-19" value="Running" style="rounded=1;whiteSpace=wrap;html=1;arcSize=24;fillColor=#ffffc0;strokeColor=#ff0000;shadow=0;comic=0;labelBackgroundColor=none;fontFamily=Verdana;fontSize=12;fontColor=#000000;align=center;" parent="2a3bc250acf0617d-7" vertex="1">
          <mxGeometry x="500" y="45" width="120" height="60" as="geometry" />
        </mxCell>
        <mxCell id="dlMh0uAXtRNhbofHb56N-1" value="" style="ellipse;html=1;shape=startState;fillColor=#000000;strokeColor=#ff0000;rounded=1;shadow=0;comic=0;labelBackgroundColor=none;fontFamily=Verdana;fontSize=12;fontColor=#000000;align=center;direction=south;" parent="2a3bc250acf0617d-7" vertex="1">
          <mxGeometry x="35" y="210" width="30" height="30" as="geometry" />
        </mxCell>
        <mxCell id="dlMh0uAXtRNhbofHb56N-3" value="&lt;font style=&quot;color: rgb(0, 0, 0);&quot;&gt;Idle&lt;/font&gt;" style="rounded=1;whiteSpace=wrap;html=1;arcSize=24;fillColor=#ffffc0;strokeColor=#ff0000;shadow=0;comic=0;labelBackgroundColor=none;fontFamily=Verdana;fontSize=12;fontColor=#000000;align=center;" parent="2a3bc250acf0617d-7" vertex="1">
          <mxGeometry x="145" y="195" width="120" height="60" as="geometry" />
        </mxCell>
        <mxCell id="dlMh0uAXtRNhbofHb56N-4" value="Running" style="rounded=1;whiteSpace=wrap;html=1;arcSize=24;fillColor=#ffffc0;strokeColor=#ff0000;shadow=0;comic=0;labelBackgroundColor=none;fontFamily=Verdana;fontSize=12;fontColor=#000000;align=center;" parent="2a3bc250acf0617d-7" vertex="1">
          <mxGeometry x="315" y="330" width="120" height="60" as="geometry" />
        </mxCell>
        <mxCell id="dlMh0uAXtRNhbofHb56N-5" value="Jumping" style="rounded=1;whiteSpace=wrap;html=1;arcSize=24;fillColor=#ffffc0;strokeColor=#ff0000;shadow=0;comic=0;labelBackgroundColor=none;fontFamily=Verdana;fontSize=12;fontColor=#000000;align=center;" parent="2a3bc250acf0617d-7" vertex="1">
          <mxGeometry x="345" y="195" width="120" height="60" as="geometry" />
        </mxCell>
        <mxCell id="dlMh0uAXtRNhbofHb56N-23" value="Falling" style="rounded=1;whiteSpace=wrap;html=1;arcSize=24;fillColor=#ffffc0;strokeColor=#ff0000;shadow=0;comic=0;labelBackgroundColor=none;fontFamily=Verdana;fontSize=12;fontColor=#000000;align=center;" parent="2a3bc250acf0617d-7" vertex="1">
          <mxGeometry x="575" y="195" width="120" height="60" as="geometry" />
        </mxCell>
        <mxCell id="dlMh0uAXtRNhbofHb56N-28" value="" style="group" parent="2a3bc250acf0617d-7" vertex="1" connectable="0">
          <mxGeometry x="185" y="330" width="90" height="30" as="geometry" />
        </mxCell>
        <mxCell id="dlMh0uAXtRNhbofHb56N-11" value="left_or_right" style="text;html=1;align=center;verticalAlign=middle;whiteSpace=wrap;rounded=0;" parent="dlMh0uAXtRNhbofHb56N-28" vertex="1">
          <mxGeometry x="20" width="70" height="30" as="geometry" />
        </mxCell>
        <mxCell id="dlMh0uAXtRNhbofHb56N-35" value="" style="group" parent="2a3bc250acf0617d-7" vertex="1" connectable="0">
          <mxGeometry x="275" y="195" width="50" height="30" as="geometry" />
        </mxCell>
        <mxCell id="dlMh0uAXtRNhbofHb56N-14" value="jump" style="text;html=1;align=center;verticalAlign=middle;resizable=0;points=[];autosize=1;strokeColor=none;fillColor=none;" parent="dlMh0uAXtRNhbofHb56N-35" vertex="1">
          <mxGeometry width="50" height="30" as="geometry" />
        </mxCell>
        <mxCell id="dlMh0uAXtRNhbofHb56N-36" value="" style="group" parent="2a3bc250acf0617d-7" vertex="1" connectable="0">
          <mxGeometry x="475" y="195" width="90" height="30" as="geometry" />
        </mxCell>
        <mxCell id="dlMh0uAXtRNhbofHb56N-24" value="max_height" style="text;html=1;align=center;verticalAlign=middle;resizable=0;points=[];autosize=1;strokeColor=none;fillColor=none;" parent="dlMh0uAXtRNhbofHb56N-36" vertex="1">
          <mxGeometry width="90" height="30" as="geometry" />
        </mxCell>
        <mxCell id="dlMh0uAXtRNhbofHb56N-38" value="" style="group" parent="2a3bc250acf0617d-7" vertex="1" connectable="0">
          <mxGeometry x="65" y="195" width="60" height="30" as="geometry" />
        </mxCell>
        <mxCell id="dlMh0uAXtRNhbofHb56N-12" value="spawn" style="text;html=1;align=center;verticalAlign=middle;whiteSpace=wrap;rounded=0;" parent="dlMh0uAXtRNhbofHb56N-38" vertex="1">
          <mxGeometry width="60" height="30" as="geometry" />
        </mxCell>
        <mxCell id="dlMh0uAXtRNhbofHb56N-43" value="" style="group" parent="2a3bc250acf0617d-7" vertex="1" connectable="0">
          <mxGeometry x="325" y="295" width="50" height="30" as="geometry" />
        </mxCell>
        <mxCell id="dlMh0uAXtRNhbofHb56N-40" value="" style="group" parent="dlMh0uAXtRNhbofHb56N-43" vertex="1" connectable="0">
          <mxGeometry width="50" height="30" as="geometry" />
        </mxCell>
        <mxCell id="dlMh0uAXtRNhbofHb56N-42" value="jump" style="text;html=1;align=center;verticalAlign=middle;resizable=0;points=[];autosize=1;strokeColor=none;fillColor=none;" parent="dlMh0uAXtRNhbofHb56N-40" vertex="1">
          <mxGeometry width="50" height="30" as="geometry" />
        </mxCell>
        <mxCell id="dlMh0uAXtRNhbofHb56N-6" style="edgeStyle=orthogonalEdgeStyle;html=1;labelBackgroundColor=none;endArrow=open;endSize=8;strokeColor=#ff0000;fontFamily=Verdana;fontSize=12;align=left;exitX=0.5;exitY=0.156;exitDx=0;exitDy=0;exitPerimeter=0;" parent="2a3bc250acf0617d-7" source="dlMh0uAXtRNhbofHb56N-1" target="dlMh0uAXtRNhbofHb56N-3" edge="1">
          <mxGeometry relative="1" as="geometry" />
        </mxCell>
        <mxCell id="dlMh0uAXtRNhbofHb56N-7" style="edgeStyle=orthogonalEdgeStyle;html=1;labelBackgroundColor=none;endArrow=open;endSize=8;strokeColor=#ff0000;fontFamily=Verdana;fontSize=12;align=left;entryX=0;entryY=0.5;" parent="2a3bc250acf0617d-7" source="dlMh0uAXtRNhbofHb56N-3" target="dlMh0uAXtRNhbofHb56N-4" edge="1">
          <mxGeometry relative="1" as="geometry">
            <Array as="points">
              <mxPoint x="185" y="360" />
            </Array>
          </mxGeometry>
        </mxCell>
        <mxCell id="dlMh0uAXtRNhbofHb56N-13" style="edgeStyle=orthogonalEdgeStyle;html=1;exitX=1;exitY=0.5;entryX=0;entryY=0.5;labelBackgroundColor=none;endArrow=open;endSize=8;strokeColor=#ff0000;fontFamily=Verdana;fontSize=12;align=left;exitDx=0;exitDy=0;entryDx=0;entryDy=0;" parent="2a3bc250acf0617d-7" source="dlMh0uAXtRNhbofHb56N-3" target="dlMh0uAXtRNhbofHb56N-5" edge="1">
          <mxGeometry relative="1" as="geometry">
            <mxPoint x="275" y="225" as="sourcePoint" />
            <mxPoint x="435" y="225" as="targetPoint" />
          </mxGeometry>
        </mxCell>
        <mxCell id="dlMh0uAXtRNhbofHb56N-39" style="edgeStyle=orthogonalEdgeStyle;html=1;exitX=0.5;exitY=0;labelBackgroundColor=none;endArrow=open;endSize=8;strokeColor=#ff0000;fontFamily=Verdana;fontSize=12;align=left;exitDx=0;exitDy=0;entryX=0.25;entryY=1;entryDx=0;entryDy=0;" parent="2a3bc250acf0617d-7" source="dlMh0uAXtRNhbofHb56N-4" target="dlMh0uAXtRNhbofHb56N-5" edge="1">
          <mxGeometry relative="1" as="geometry">
            <mxPoint x="355" y="315" as="sourcePoint" />
            <mxPoint x="425" y="315" as="targetPoint" />
          </mxGeometry>
        </mxCell>
        <mxCell id="dlMh0uAXtRNhbofHb56N-22" style="edgeStyle=orthogonalEdgeStyle;html=1;exitX=1;exitY=0.5;labelBackgroundColor=none;endArrow=open;endSize=8;strokeColor=#ff0000;fontFamily=Verdana;fontSize=12;align=left;exitDx=0;exitDy=0;entryX=0;entryY=0.5;entryDx=0;entryDy=0;" parent="2a3bc250acf0617d-7" source="dlMh0uAXtRNhbofHb56N-5" target="dlMh0uAXtRNhbofHb56N-23" edge="1">
          <mxGeometry relative="1" as="geometry">
            <mxPoint x="565" y="220" as="sourcePoint" />
            <mxPoint x="535" y="225" as="targetPoint" />
          </mxGeometry>
        </mxCell>
        <mxCell id="OWi-pqg4BFYJw5o-Ay4C-2" value="" style="group" vertex="1" connectable="0" parent="2a3bc250acf0617d-7">
          <mxGeometry x="235" y="150" width="370" height="30" as="geometry" />
        </mxCell>
        <mxCell id="dlMh0uAXtRNhbofHb56N-37" value="" style="group" parent="OWi-pqg4BFYJw5o-Ay4C-2" vertex="1" connectable="0">
          <mxGeometry width="370" height="30" as="geometry" />
        </mxCell>
        <mxCell id="dlMh0uAXtRNhbofHb56N-26" value="on_floor" style="text;html=1;align=center;verticalAlign=middle;resizable=0;points=[];autosize=1;strokeColor=none;fillColor=none;" parent="dlMh0uAXtRNhbofHb56N-37" vertex="1">
          <mxGeometry x="135" width="70" height="30" as="geometry" />
        </mxCell>
        <mxCell id="dlMh0uAXtRNhbofHb56N-25" style="edgeStyle=orthogonalEdgeStyle;html=1;labelBackgroundColor=none;endArrow=open;endSize=8;strokeColor=#ff0000;fontFamily=Verdana;fontSize=12;align=left;entryX=0.75;entryY=0;entryDx=0;entryDy=0;exitX=0.25;exitY=0;exitDx=0;exitDy=0;" parent="OWi-pqg4BFYJw5o-Ay4C-2" source="dlMh0uAXtRNhbofHb56N-23" target="dlMh0uAXtRNhbofHb56N-3" edge="1">
          <mxGeometry relative="1" as="geometry">
            <mxPoint x="410" y="30" as="sourcePoint" />
            <mxPoint x="190" y="10" as="targetPoint" />
            <Array as="points">
              <mxPoint x="370" y="30" />
              <mxPoint y="30" />
            </Array>
          </mxGeometry>
        </mxCell>
        <mxCell id="OWi-pqg4BFYJw5o-Ay4C-5" value="" style="group" vertex="1" connectable="0" parent="2a3bc250acf0617d-7">
          <mxGeometry x="175" y="110" width="490" height="30" as="geometry" />
        </mxCell>
        <mxCell id="OWi-pqg4BFYJw5o-Ay4C-3" style="edgeStyle=orthogonalEdgeStyle;html=1;exitX=0.25;exitY=0;labelBackgroundColor=none;endArrow=open;endSize=8;strokeColor=#ff0000;fontFamily=Verdana;fontSize=12;align=left;exitDx=0;exitDy=0;rounded=0;entryX=0.75;entryY=0;entryDx=0;entryDy=0;" edge="1" parent="OWi-pqg4BFYJw5o-Ay4C-5" source="dlMh0uAXtRNhbofHb56N-3" target="dlMh0uAXtRNhbofHb56N-23">
          <mxGeometry relative="1" as="geometry">
            <mxPoint x="175" as="sourcePoint" />
            <mxPoint x="485" y="10" as="targetPoint" />
            <Array as="points">
              <mxPoint y="30" />
              <mxPoint x="490" y="30" />
            </Array>
          </mxGeometry>
        </mxCell>
        <mxCell id="OWi-pqg4BFYJw5o-Ay4C-4" value="!on_floor" style="text;html=1;align=center;verticalAlign=middle;resizable=0;points=[];autosize=1;strokeColor=none;fillColor=none;" vertex="1" parent="OWi-pqg4BFYJw5o-Ay4C-5">
          <mxGeometry x="195" width="70" height="30" as="geometry" />
        </mxCell>
        <mxCell id="dlMh0uAXtRNhbofHb56N-29" value="drill_states" style="swimlane;whiteSpace=wrap;html=1;rounded=1;shadow=0;comic=0;labelBackgroundColor=none;strokeWidth=1;fontFamily=Verdana;fontSize=12;align=center;" parent="1" vertex="1">
          <mxGeometry x="60" y="480" width="740" height="480" as="geometry">
            <mxRectangle x="60" y="480" width="110" height="30" as="alternateBounds" />
          </mxGeometry>
        </mxCell>
        <mxCell id="dlMh0uAXtRNhbofHb56N-20" value="Drilling" style="rounded=1;whiteSpace=wrap;html=1;arcSize=24;fillColor=#ffffc0;strokeColor=#ff0000;shadow=0;comic=0;labelBackgroundColor=none;fontFamily=Verdana;fontSize=12;fontColor=#000000;align=center;" parent="dlMh0uAXtRNhbofHb56N-29" vertex="1">
          <mxGeometry x="190" y="50" width="120" height="60" as="geometry" />
        </mxCell>
        <mxCell id="dlMh0uAXtRNhbofHb56N-27" value="Pointing" style="rounded=1;whiteSpace=wrap;html=1;arcSize=24;fillColor=#ffffc0;strokeColor=#ff0000;shadow=0;comic=0;labelBackgroundColor=none;fontFamily=Verdana;fontSize=12;fontColor=#000000;align=center;" parent="dlMh0uAXtRNhbofHb56N-29" vertex="1">
          <mxGeometry x="30" y="50" width="120" height="60" as="geometry" />
        </mxCell>
        <mxCell id="dlMh0uAXtRNhbofHb56N-49" value="Pointing" style="rounded=1;whiteSpace=wrap;html=1;arcSize=24;fillColor=#ffffc0;strokeColor=#ff0000;shadow=0;comic=0;labelBackgroundColor=none;fontFamily=Verdana;fontSize=12;fontColor=#000000;align=center;" parent="dlMh0uAXtRNhbofHb56N-29" vertex="1">
          <mxGeometry x="213.14" y="150" width="120" height="120" as="geometry" />
        </mxCell>
        <mxCell id="dlMh0uAXtRNhbofHb56N-54" value="Drilling" style="rounded=1;whiteSpace=wrap;html=1;arcSize=24;fillColor=#ffffc0;strokeColor=#ff0000;shadow=0;comic=0;labelBackgroundColor=none;fontFamily=Verdana;fontSize=12;fontColor=#000000;align=center;" parent="dlMh0uAXtRNhbofHb56N-29" vertex="1">
          <mxGeometry x="213.14" y="370" width="120" height="60" as="geometry" />
        </mxCell>
        <mxCell id="dlMh0uAXtRNhbofHb56N-61" value="" style="group" parent="dlMh0uAXtRNhbofHb56N-29" vertex="1" connectable="0">
          <mxGeometry x="83.13999999999999" y="150" width="110" height="30" as="geometry" />
        </mxCell>
        <mxCell id="dlMh0uAXtRNhbofHb56N-62" value="" style="group" parent="dlMh0uAXtRNhbofHb56N-61" vertex="1" connectable="0">
          <mxGeometry width="110" height="30" as="geometry" />
        </mxCell>
        <mxCell id="dlMh0uAXtRNhbofHb56N-51" value="" style="group" parent="dlMh0uAXtRNhbofHb56N-62" vertex="1" connectable="0">
          <mxGeometry width="110" height="30" as="geometry" />
        </mxCell>
        <mxCell id="dlMh0uAXtRNhbofHb56N-50" value="shift_is_pressed" style="text;html=1;align=center;verticalAlign=middle;resizable=0;points=[];autosize=1;strokeColor=none;fillColor=none;" parent="dlMh0uAXtRNhbofHb56N-51" vertex="1">
          <mxGeometry width="110" height="30" as="geometry" />
        </mxCell>
        <mxCell id="dlMh0uAXtRNhbofHb56N-71" value="" style="group" parent="dlMh0uAXtRNhbofHb56N-29" vertex="1" connectable="0">
          <mxGeometry x="298.14" y="290" width="110" height="30" as="geometry" />
        </mxCell>
        <mxCell id="dlMh0uAXtRNhbofHb56N-66" value="" style="group" parent="dlMh0uAXtRNhbofHb56N-71" vertex="1" connectable="0">
          <mxGeometry width="110" height="30" as="geometry" />
        </mxCell>
        <mxCell id="dlMh0uAXtRNhbofHb56N-67" value="" style="group" parent="dlMh0uAXtRNhbofHb56N-66" vertex="1" connectable="0">
          <mxGeometry width="110" height="30" as="geometry" />
        </mxCell>
        <mxCell id="dlMh0uAXtRNhbofHb56N-68" value="" style="group" parent="dlMh0uAXtRNhbofHb56N-67" vertex="1" connectable="0">
          <mxGeometry width="110" height="30" as="geometry" />
        </mxCell>
        <mxCell id="dlMh0uAXtRNhbofHb56N-69" value="shift_is_pressed" style="text;html=1;align=center;verticalAlign=middle;resizable=0;points=[];autosize=1;strokeColor=none;fillColor=none;" parent="dlMh0uAXtRNhbofHb56N-68" vertex="1">
          <mxGeometry width="110" height="30" as="geometry" />
        </mxCell>
        <mxCell id="dlMh0uAXtRNhbofHb56N-75" value="" style="group" parent="dlMh0uAXtRNhbofHb56N-29" vertex="1" connectable="0">
          <mxGeometry x="123.13999999999999" y="290" width="130" height="30" as="geometry" />
        </mxCell>
        <mxCell id="dlMh0uAXtRNhbofHb56N-72" value="" style="group" parent="dlMh0uAXtRNhbofHb56N-75" vertex="1" connectable="0">
          <mxGeometry width="130" height="30" as="geometry" />
        </mxCell>
        <mxCell id="dlMh0uAXtRNhbofHb56N-74" value="attack_is_pressed" style="text;html=1;align=center;verticalAlign=middle;resizable=0;points=[];autosize=1;strokeColor=none;fillColor=none;" parent="dlMh0uAXtRNhbofHb56N-72" vertex="1">
          <mxGeometry x="5" width="120" height="30" as="geometry" />
        </mxCell>
        <mxCell id="dlMh0uAXtRNhbofHb56N-76" value="" style="shape=line;html=1;strokeWidth=6;strokeColor=#ff0000;direction=south;" parent="dlMh0uAXtRNhbofHb56N-29" vertex="1">
          <mxGeometry x="428.14" y="180" width="10" height="220" as="geometry" />
        </mxCell>
        <mxCell id="dlMh0uAXtRNhbofHb56N-78" value="" style="group" parent="dlMh0uAXtRNhbofHb56N-29" vertex="1" connectable="0">
          <mxGeometry x="63.14" y="370" width="135" height="30" as="geometry" />
        </mxCell>
        <mxCell id="dlMh0uAXtRNhbofHb56N-55" value="attack_is_pressed" style="text;html=1;align=center;verticalAlign=middle;resizable=0;points=[];autosize=1;strokeColor=none;fillColor=none;" parent="dlMh0uAXtRNhbofHb56N-78" vertex="1">
          <mxGeometry x="15" width="120" height="30" as="geometry" />
        </mxCell>
        <mxCell id="dlMh0uAXtRNhbofHb56N-79" style="edgeStyle=orthogonalEdgeStyle;html=1;exitX=1;exitY=0.5;labelBackgroundColor=none;endArrow=open;endSize=8;strokeColor=#ff0000;fontFamily=Verdana;fontSize=12;align=left;exitDx=0;exitDy=0;rounded=0;entryX=1;entryY=0.5;entryDx=0;entryDy=0;entryPerimeter=0;" parent="dlMh0uAXtRNhbofHb56N-29" source="dlMh0uAXtRNhbofHb56N-54" target="dlMh0uAXtRNhbofHb56N-76" edge="1">
          <mxGeometry relative="1" as="geometry">
            <mxPoint x="343.14" y="400" as="sourcePoint" />
            <mxPoint x="413.14" y="400" as="targetPoint" />
            <Array as="points">
              <mxPoint x="403.14" y="400" />
              <mxPoint x="403.14" y="400" />
            </Array>
          </mxGeometry>
        </mxCell>
        <mxCell id="dlMh0uAXtRNhbofHb56N-80" style="edgeStyle=orthogonalEdgeStyle;html=1;exitX=1;exitY=0.25;labelBackgroundColor=none;endArrow=open;endSize=8;strokeColor=#ff0000;fontFamily=Verdana;fontSize=12;align=left;exitDx=0;exitDy=0;rounded=0;entryX=0.002;entryY=0.6;entryDx=0;entryDy=0;entryPerimeter=0;" parent="dlMh0uAXtRNhbofHb56N-29" source="dlMh0uAXtRNhbofHb56N-49" target="dlMh0uAXtRNhbofHb56N-76" edge="1">
          <mxGeometry relative="1" as="geometry">
            <mxPoint x="353.14" y="190" as="sourcePoint" />
            <mxPoint x="403.14" y="180" as="targetPoint" />
            <Array as="points">
              <mxPoint x="423.14" y="180" />
            </Array>
          </mxGeometry>
        </mxCell>
        <mxCell id="dlMh0uAXtRNhbofHb56N-17" value="Bouncing" style="rounded=1;whiteSpace=wrap;html=1;arcSize=24;fillColor=#ffffc0;strokeColor=#ff0000;shadow=0;comic=0;labelBackgroundColor=none;fontFamily=Verdana;fontSize=12;fontColor=#000000;align=center;" parent="dlMh0uAXtRNhbofHb56N-29" vertex="1">
          <mxGeometry x="573.14" y="260" width="120" height="60" as="geometry" />
        </mxCell>
        <mxCell id="dlMh0uAXtRNhbofHb56N-85" value="" style="group" parent="dlMh0uAXtRNhbofHb56N-29" vertex="1" connectable="0">
          <mxGeometry x="433.14" y="260" width="140" height="30" as="geometry" />
        </mxCell>
        <mxCell id="dlMh0uAXtRNhbofHb56N-82" value="against_bouncing_obj" style="text;html=1;align=center;verticalAlign=middle;resizable=0;points=[];autosize=1;strokeColor=none;fillColor=none;" parent="dlMh0uAXtRNhbofHb56N-85" vertex="1">
          <mxGeometry width="140" height="30" as="geometry" />
        </mxCell>
        <mxCell id="dlMh0uAXtRNhbofHb56N-44" value="" style="ellipse;html=1;shape=startState;fillColor=#000000;strokeColor=#ff0000;rounded=1;shadow=0;comic=0;labelBackgroundColor=none;fontFamily=Verdana;fontSize=12;fontColor=#000000;align=center;direction=south;" parent="dlMh0uAXtRNhbofHb56N-29" vertex="1">
          <mxGeometry x="35.99714285714286" y="160" width="37.142857142857146" height="40" as="geometry" />
        </mxCell>
        <mxCell id="dlMh0uAXtRNhbofHb56N-52" style="edgeStyle=orthogonalEdgeStyle;html=1;exitX=0.893;exitY=0.513;labelBackgroundColor=none;endArrow=open;endSize=8;strokeColor=#ff0000;fontFamily=Verdana;fontSize=12;align=left;exitDx=0;exitDy=0;rounded=0;exitPerimeter=0;entryX=0;entryY=0.5;entryDx=0;entryDy=0;" parent="dlMh0uAXtRNhbofHb56N-29" source="dlMh0uAXtRNhbofHb56N-44" target="dlMh0uAXtRNhbofHb56N-54" edge="1">
          <mxGeometry relative="1" as="geometry">
            <mxPoint x="153.14" y="280" as="sourcePoint" />
            <mxPoint x="134.14" y="380" as="targetPoint" />
            <Array as="points">
              <mxPoint x="54.14" y="200" />
              <mxPoint x="54.14" y="200" />
              <mxPoint x="54.14" y="400" />
            </Array>
          </mxGeometry>
        </mxCell>
        <mxCell id="dlMh0uAXtRNhbofHb56N-47" style="edgeStyle=orthogonalEdgeStyle;html=1;exitX=0.51;exitY=0.1;labelBackgroundColor=none;endArrow=open;endSize=8;strokeColor=#ff0000;fontFamily=Verdana;fontSize=12;align=left;exitDx=0;exitDy=0;rounded=0;exitPerimeter=0;entryX=0;entryY=0.25;entryDx=0;entryDy=0;" parent="dlMh0uAXtRNhbofHb56N-29" source="dlMh0uAXtRNhbofHb56N-44" target="dlMh0uAXtRNhbofHb56N-49" edge="1">
          <mxGeometry relative="1" as="geometry">
            <mxPoint x="183.14" y="190" as="sourcePoint" />
            <mxPoint x="153.14" y="180" as="targetPoint" />
          </mxGeometry>
        </mxCell>
        <mxCell id="dlMh0uAXtRNhbofHb56N-73" style="edgeStyle=orthogonalEdgeStyle;html=1;exitX=0.25;exitY=1;labelBackgroundColor=none;endArrow=open;endSize=8;strokeColor=#ff0000;fontFamily=Verdana;fontSize=12;align=left;exitDx=0;exitDy=0;rounded=0;entryX=0.25;entryY=0;entryDx=0;entryDy=0;" parent="dlMh0uAXtRNhbofHb56N-29" source="dlMh0uAXtRNhbofHb56N-49" target="dlMh0uAXtRNhbofHb56N-54" edge="1">
          <mxGeometry relative="1" as="geometry">
            <mxPoint x="233.14" y="210" as="sourcePoint" />
            <mxPoint x="214.14" y="310" as="targetPoint" />
            <Array as="points">
              <mxPoint x="243.14" y="290" />
              <mxPoint x="243.14" y="290" />
            </Array>
          </mxGeometry>
        </mxCell>
        <mxCell id="dlMh0uAXtRNhbofHb56N-64" style="edgeStyle=orthogonalEdgeStyle;html=1;exitX=0.75;exitY=0;labelBackgroundColor=none;endArrow=open;endSize=8;strokeColor=#ff0000;fontFamily=Verdana;fontSize=12;align=left;exitDx=0;exitDy=0;rounded=0;entryX=0.75;entryY=1;entryDx=0;entryDy=0;" parent="dlMh0uAXtRNhbofHb56N-29" source="dlMh0uAXtRNhbofHb56N-54" target="dlMh0uAXtRNhbofHb56N-49" edge="1">
          <mxGeometry relative="1" as="geometry">
            <mxPoint x="402.14" y="331" as="sourcePoint" />
            <mxPoint x="472.14" y="331" as="targetPoint" />
          </mxGeometry>
        </mxCell>
        <mxCell id="dlMh0uAXtRNhbofHb56N-77" value="" style="edgeStyle=orthogonalEdgeStyle;html=1;verticalAlign=bottom;endArrow=open;endSize=8;strokeColor=#ff0000;rounded=0;exitX=0.502;exitY=0.534;exitDx=0;exitDy=0;exitPerimeter=0;entryX=0;entryY=0.5;entryDx=0;entryDy=0;" parent="dlMh0uAXtRNhbofHb56N-29" source="dlMh0uAXtRNhbofHb56N-76" target="dlMh0uAXtRNhbofHb56N-17" edge="1">
          <mxGeometry relative="1" as="geometry">
            <mxPoint x="588.14" y="290" as="targetPoint" />
            <mxPoint x="543.14" y="360" as="sourcePoint" />
          </mxGeometry>
        </mxCell>
        <mxCell id="dlMh0uAXtRNhbofHb56N-86" value="Bouncing" style="rounded=1;whiteSpace=wrap;html=1;arcSize=24;fillColor=#ffffc0;strokeColor=#ff0000;shadow=0;comic=0;labelBackgroundColor=none;fontFamily=Verdana;fontSize=12;fontColor=#000000;align=center;" parent="dlMh0uAXtRNhbofHb56N-29" vertex="1">
          <mxGeometry x="350" y="50" width="120" height="60" as="geometry" />
        </mxCell>
      </root>
    </mxGraphModel>
  </diagram>
</mxfile>
